<svg xmlns="http://www.w3.org/2000/svg" viewBox="0 0 32 32">
  <rect width="32" height="32" rx="7" fill="#3a9ca3"/>
  <path d="M16 6c.9 0 1.6.7 1.6 1.6 0 .6-.5 1.3-1.6 2.6-1.1-1.3-1.6-2-1.6-2.6C14.4 6.7 15.1 6 16 6z" fill="#f0eaf5"/>
  <rect x="15.4" y="9.5" width="1.2" height="3" fill="#f0eaf5"/>
  <path d="M9 15.5h14V24a2 2 0 0 1-2 2H11a2 2 0 0 1-2-2v-8.5z" fill="#ffffff"/>
  <path d="M9 15.5c1.2 1.2 2.4 1.2 3.5 0 1.2 1.2 2.4 1.2 3.5 0 1.2 1.2 2.4 1.2 3.5 0 1.2 1.2 2.3 1.2 3.5 0v2c-1.2 1.2-2.3 1.2-3.5 0-1.1 1.2-2.3 1.2-3.5 0-1.1 1.2-2.3 1.2-3.5 0-1.1 1.2-2.3 1.2-3.5 0v-2z" fill="#7a5c8e"/>
</svg>
